<svg xmlns="http://www.w3.org/2000/svg" xmlns:xlink="http://www.w3.org/1999/xlink" contentStyleType="text/css" data-diagram-type="DESCRIPTION" height="158px" preserveAspectRatio="none" style="width:479px;height:158px;background:#FFFFFF;" version="1.1" viewBox="0 0 479 158" width="479px" zoomAndPan="magnify"><defs/><g><!--cluster circulator-core--><g class="cluster" data-entity="circulator-core" data-source-line="1" data-uid="ent0002" id="cluster_circulator-core"><path d="M8.5,63.78 L125.3555,63.78 A3.75,3.75 0 0 1 127.8555,66.28 L134.8555,86.0769 L196.5,86.0769 A2.5,2.5 0 0 1 199,88.5769 L199,148.58 A2.5,2.5 0 0 1 196.5,151.08 L8.5,151.08 A2.5,2.5 0 0 1 6,148.58 L6,66.28 A2.5,2.5 0 0 1 8.5,63.78" fill="none" style="stroke:#000000;stroke-width:1.5;"/><line style="stroke:#000000;stroke-width:1.5;" x1="6" x2="134.8555" y1="86.0769" y2="86.0769"/><text fill="#000000" font-family="sans-serif" font-size="14" font-weight="bold" lengthAdjust="spacing" textLength="115.8555" x="10" y="78.7751">circulator-core</text></g><!--cluster circulator-plugin--><g class="cluster" data-entity="circulator-plugin" data-source-line="6" data-uid="ent0005" id="cluster_circulator-plugin"><path d="M225.5,63.78 L357.6133,63.78 A3.75,3.75 0 0 1 360.1133,66.28 L367.1133,86.0769 L367.5,86.0769 A2.5,2.5 0 0 1 370,88.5769 L370,148.58 A2.5,2.5 0 0 1 367.5,151.08 L225.5,151.08 A2.5,2.5 0 0 1 223,148.58 L223,66.28 A2.5,2.5 0 0 1 225.5,63.78" fill="none" style="stroke:#000000;stroke-width:1.5;"/><line style="stroke:#000000;stroke-width:1.5;" x1="223" x2="367.1133" y1="86.0769" y2="86.0769"/><text fill="#000000" font-family="sans-serif" font-size="14" font-weight="bold" lengthAdjust="spacing" textLength="131.1133" x="227" y="78.7751">circulator-plugin</text></g><!--cluster demo--><g class="cluster" data-entity="demo" data-source-line="10" data-uid="ent0007" id="cluster_demo"><path d="M396.5,63.78 L441.2227,63.78 A3.75,3.75 0 0 1 443.7227,66.28 L450.7227,86.0769 L469.5,86.0769 A2.5,2.5 0 0 1 472,88.5769 L472,148.58 A2.5,2.5 0 0 1 469.5,151.08 L396.5,151.08 A2.5,2.5 0 0 1 394,148.58 L394,66.28 A2.5,2.5 0 0 1 396.5,63.78" fill="none" style="stroke:#000000;stroke-width:1.5;"/><line style="stroke:#000000;stroke-width:1.5;" x1="394" x2="450.7227" y1="86.0769" y2="86.0769"/><text fill="#000000" font-family="sans-serif" font-size="14" font-weight="bold" lengthAdjust="spacing" textLength="43.7227" x="398" y="78.7751">demo</text></g><!--entity C--><g class="entity" data-entity="C" data-source-line="2" data-uid="ent0003" id="entity_C"><rect fill="#F0F8FF" height="32.2969" rx="2.5" ry="2.5" style="stroke:#0000FF;stroke-width:1;stroke-dasharray:1.0,3.0;" width="76.9766" x="25.51" y="102.78"/><rect fill="#F0F8FF" height="32.2969" rx="2.5" ry="2.5" style="stroke:#0000FF;stroke-width:1;stroke-dasharray:1.0,3.0;" width="76.9766" x="21.51" y="98.78"/><text fill="#0000FF" font-family="sans-serif" font-size="14" lengthAdjust="spacing" textLength="60.9766" x="29.51" y="119.7751">common</text></g><!--entity J1--><g class="entity" data-entity="J1" data-source-line="3" data-uid="ent0004" id="entity_J1"><rect fill="#FFFF00" height="32.2969" rx="2.5" ry="2.5" style="stroke:#0000FF;stroke-width:1;stroke-dasharray:1.0,3.0;" width="41.7852" x="141.11" y="102.78"/><rect fill="#FFFF00" height="32.2969" rx="2.5" ry="2.5" style="stroke:#0000FF;stroke-width:1;stroke-dasharray:1.0,3.0;" width="41.7852" x="137.11" y="98.78"/><text fill="#0000FF" font-family="sans-serif" font-size="14" lengthAdjust="spacing" textLength="25.7852" x="145.11" y="119.7751">JVM</text></g><!--entity J2--><g class="entity" data-entity="J2" data-source-line="7" data-uid="ent0006" id="entity_J2"><rect fill="#FFFF00" height="32.2969" rx="2.5" ry="2.5" style="stroke:#0000FF;stroke-width:1;stroke-dasharray:1.0,3.0;" width="41.7852" x="277.11" y="102.78"/><rect fill="#FFFF00" height="32.2969" rx="2.5" ry="2.5" style="stroke:#0000FF;stroke-width:1;stroke-dasharray:1.0,3.0;" width="41.7852" x="273.11" y="98.78"/><text fill="#0000FF" font-family="sans-serif" font-size="14" lengthAdjust="spacing" textLength="25.7852" x="281.11" y="119.7751">JVM</text></g><!--entity J3--><g class="entity" data-entity="J3" data-source-line="11" data-uid="ent0008" id="entity_J3"><rect fill="#FFFF00" height="32.2969" rx="2.5" ry="2.5" style="stroke:#0000FF;stroke-width:1;stroke-dasharray:1.0,3.0;" width="41.7852" x="414.11" y="102.78"/><rect fill="#FFFF00" height="32.2969" rx="2.5" ry="2.5" style="stroke:#0000FF;stroke-width:1;stroke-dasharray:1.0,3.0;" width="41.7852" x="410.11" y="98.78"/><text fill="#0000FF" font-family="sans-serif" font-size="14" lengthAdjust="spacing" textLength="25.7852" x="418.11" y="119.7751">JVM</text></g><!--reverse link C to J1--><g class="link" data-entity-1="C" data-entity-2="J1" data-source-line="14" data-uid="lnk9" id="link_C_J1"><path d="M108.96,116.93 C120.25,116.93 125.54,116.93 136.83,116.93" fill="none" id="C-backto-J1" style="stroke:#181818;stroke-width:1;"/><polygon fill="#181818" points="102.96,116.93,111.96,120.93,107.96,116.93,111.96,112.93,102.96,116.93" style="stroke:#181818;stroke-width:1;"/></g><!--link J2 to J1--><g class="link" data-entity-1="J2" data-entity-2="J1" data-source-line="15" data-uid="lnk10" id="link_J2_J1"><path d="M272.68,116.93 C242.91,116.93 219.14,116.93 189.38,116.93" fill="none" id="J2-to-J1" style="stroke:#181818;stroke-width:1;"/><polygon fill="#181818" points="183.38,116.93,192.38,120.93,188.38,116.93,192.38,112.93,183.38,116.93" style="stroke:#181818;stroke-width:1;"/></g><!--link J3 to J2--><g class="link" data-entity-1="J3" data-entity-2="J2" data-source-line="16" data-uid="lnk11" id="link_J3_J2"><path d="M409.9,116.93 C379.69,116.93 355.49,116.93 325.28,116.93" fill="none" id="J3-to-J2" style="stroke:#181818;stroke-width:1;"/><polygon fill="#181818" points="319.28,116.93,328.28,120.93,324.28,116.93,328.28,112.93,319.28,116.93" style="stroke:#181818;stroke-width:1;"/></g><!--link J3 to J1--><g class="link" data-entity-1="J3" data-entity-2="J1" data-source-line="17" data-uid="lnk12" id="link_J3_J1"><path d="M417.26,98.58 C396.88,76.38 359.01,40.19 317.5,25.78 C260.49,6 204.7161,61.8565 178.1161,93.8465" fill="none" id="J3-to-J1" style="stroke:#181818;stroke-width:1;"/><polygon fill="#181818" points="174.28,98.46,183.1099,94.0972,177.4768,94.6154,176.9586,88.9824,174.28,98.46" style="stroke:#181818;stroke-width:1;"/></g><!--SRC=[dO-n2i90343t-uhGpXNQRbPSkXMwkfzfA8UvIsclg8Z_xlL01uk8RYyPNbu6ZIVT4w0PSMRjPSnGHeAR0a1X9lH6tBGCree3FK4DgMQ3TEIPAZQEjY_QTE8zTPMdYu_RTqlI7DfaaJGvf5TYblDNnLsfOLqvyDmRj-uC1wA_-CVVaPNFol8NPGsxB7ofGaYsZr16A9wGFm00]--></g></svg>