<svg xmlns="http://www.w3.org/2000/svg" xmlns:xlink="http://www.w3.org/1999/xlink" contentStyleType="text/css" data-diagram-type="DESCRIPTION" height="416px" preserveAspectRatio="none" style="width:333px;height:416px;background:#FFFFFF;" version="1.1" viewBox="0 0 333 416" width="333px" zoomAndPan="magnify"><defs/><g><!--cluster ???????--><g class="cluster" data-entity="Система" data-source-line="1" data-uid="ent0002" id="cluster_Система"><rect fill="none" height="403.89" rx="2.5" ry="2.5" style="stroke:#181818;stroke-width:1;" width="320" x="7" y="7"/><text fill="#000000" font-family="sans-serif" font-size="14" font-weight="bold" lengthAdjust="spacing" textLength="66.8828" x="133.5586" y="21.9951">Система</text></g><!--cluster ??????????--><g class="cluster" data-entity="Контроллер" data-source-line="2" data-uid="ent0003" id="cluster_Контроллер"><rect fill="none" height="212.29" rx="2.5" ry="2.5" style="stroke:#181818;stroke-width:1;" width="256" x="39" y="112.3"/><rect fill="none" height="10" style="stroke:#181818;stroke-width:1;" width="15" x="275" y="117.3"/><rect fill="none" height="2" style="stroke:#181818;stroke-width:1;" width="4" x="273" y="119.3"/><rect fill="none" height="2" style="stroke:#181818;stroke-width:1;" width="4" x="273" y="123.3"/><text fill="#000000" font-family="sans-serif" font-size="14" font-weight="bold" lengthAdjust="spacing" textLength="98.5127" x="117.7437" y="138.2951">Контроллер</text></g><!--cluster ??????--><g class="cluster" data-entity="Прибор" data-source-line="3" data-uid="ent0004" id="cluster_Прибор"><rect fill="none" height="113.29" rx="2.5" ry="2.5" style="stroke:#181818;stroke-width:1;" width="168" x="79" y="171.3"/><rect fill="none" height="10" style="stroke:#181818;stroke-width:1;" width="15" x="227" y="176.3"/><rect fill="none" height="2" style="stroke:#181818;stroke-width:1;" width="4" x="225" y="178.3"/><rect fill="none" height="2" style="stroke:#181818;stroke-width:1;" width="4" x="225" y="182.3"/><text fill="#000000" font-family="sans-serif" font-size="14" font-weight="bold" lengthAdjust="spacing" textLength="60.9629" x="132.5186" y="197.2951">Прибор</text></g><!--entity ??????--><g class="entity" data-entity="Кнопка" data-source-line="7" data-uid="ent0006" id="entity_Кнопка"><rect fill="#F1F1F1" height="46.2969" rx="2.5" ry="2.5" style="stroke:#181818;stroke-width:0.5;" width="93.8467" x="217.08" y="348.59"/><rect fill="#F1F1F1" height="10" style="stroke:#181818;stroke-width:0.5;" width="15" x="290.9267" y="353.59"/><rect fill="#F1F1F1" height="2" style="stroke:#181818;stroke-width:0.5;" width="4" x="288.9267" y="355.59"/><rect fill="#F1F1F1" height="2" style="stroke:#181818;stroke-width:0.5;" width="4" x="288.9267" y="359.59"/><text fill="#000000" font-family="sans-serif" font-size="14" lengthAdjust="spacing" textLength="53.8467" x="232.08" y="381.5851">Кнопка</text></g><!--entity ???????--><g class="entity" data-entity="Дисплей" data-source-line="8" data-uid="ent0008" id="entity_Дисплей"><rect fill="#F1F1F1" height="46.2969" rx="2.5" ry="2.5" style="stroke:#181818;stroke-width:0.5;" width="103.5469" x="207.23" y="42"/><rect fill="#F1F1F1" height="10" style="stroke:#181818;stroke-width:0.5;" width="15" x="290.7769" y="47"/><rect fill="#F1F1F1" height="2" style="stroke:#181818;stroke-width:0.5;" width="4" x="288.7769" y="49"/><rect fill="#F1F1F1" height="2" style="stroke:#181818;stroke-width:0.5;" width="4" x="288.7769" y="53"/><text fill="#000000" font-family="sans-serif" font-size="14" lengthAdjust="spacing" textLength="63.5469" x="222.23" y="74.9951">Дисплей</text></g><!--entity ???????--><g class="entity" data-entity="Счетчик" data-source-line="4" data-uid="ent0005" id="entity_Счетчик"><rect fill="#F1F1F1" height="46.2969" rx="2.5" ry="2.5" style="stroke:#181818;stroke-width:0.5;" width="100.6416" x="102.68" y="214.3"/><rect fill="#F1F1F1" height="10" style="stroke:#181818;stroke-width:0.5;" width="15" x="183.3216" y="219.3"/><rect fill="#F1F1F1" height="2" style="stroke:#181818;stroke-width:0.5;" width="4" x="181.3216" y="221.3"/><rect fill="#F1F1F1" height="2" style="stroke:#181818;stroke-width:0.5;" width="4" x="181.3216" y="225.3"/><text fill="#000000" font-family="sans-serif" font-size="14" lengthAdjust="spacing" textLength="60.6416" x="117.68" y="247.2951">Счетчик</text></g><!--reverse link ?????????? to ??????--><g class="link" data-entity-1="Контроллер" data-entity-2="Кнопка" data-source-line="7" data-uid="lnk7" id="link_Контроллер_Кнопка"><path d="M270.9738,330.6532 C270.4764,333.5153 271.016,330.4104 270.5422,333.1368 C269.5945,338.5897 268.7025,343.7225 267.9,348.34" fill="none" id="Контроллер-backto-Кнопка" style="stroke:#181818;stroke-width:1;"/><polygon fill="#181818" points="272.0011,324.7418,266.5192,332.924,271.145,329.668,274.4011,334.2938,272.0011,324.7418" style="stroke:#181818;stroke-width:1;"/></g><!--reverse link ??????? to ??????????--><g class="link" data-entity-1="Дисплей" data-entity-2="Контроллер" data-source-line="8" data-uid="lnk9" id="link_Дисплей_Контроллер"><path d="M263.6938,94.6805 C264.6313,100.3805 264.7319,100.9933 265.8953,108.0685 C266.0407,108.9529 266.1875,109.8457 266.3356,110.7465 C266.4097,111.1969 266.484,111.6492 266.5587,112.1035" fill="none" id="Дисплей-backto-Контроллер" style="stroke:#181818;stroke-width:1;"/><polygon fill="#181818" points="262.72,88.76,260.2337,98.2899,263.5315,93.6937,268.1276,96.9915,262.72,88.76" style="stroke:#181818;stroke-width:1;"/></g><!--link ?????????? to ??????--><g class="link" data-entity-1="Контроллер" data-entity-2="Прибор" data-source-line="9" data-uid="lnk10" id="link_Контроллер_Прибор"><path d="M280.26,237.44 C272.51,237.44 270.7575,237.44 263.005,237.44 C259.1287,237.44 255.2525,237.44 251.3766,237.44 C250.4076,237.44 249.4386,237.44 248.4697,237.44 C247.9852,237.44 253.5007,237.44 253.0163,237.44" fill="none" id="Контроллер-Прибор" style="stroke:#181818;stroke-width:1;"/><polygon fill="#181818" points="286.26,237.44,277.26,233.44,281.26,237.44,277.26,241.44,286.26,237.44" style="stroke:#181818;stroke-width:1;"/><polygon fill="#181818" points="247.0163,237.44,256.0163,241.44,252.0163,237.44,256.0163,233.44,247.0163,237.44" style="stroke:#181818;stroke-width:1;"/></g><!--link ?????? to ???????--><g class="link" data-entity-1="Прибор" data-entity-2="Счетчик" data-source-line="10" data-uid="lnk11" id="link_Прибор_Счетчик"><path d="M232.17,237.44 C220.69,237.44 221.21,237.44 209.73,237.44" fill="none" id="Прибор-Счетчик" style="stroke:#181818;stroke-width:1;"/><polygon fill="#181818" points="238.17,237.44,229.17,233.44,233.17,237.44,229.17,241.44,238.17,237.44" style="stroke:#181818;stroke-width:1;"/><polygon fill="#181818" points="203.73,237.44,212.73,241.44,208.73,237.44,212.73,233.44,203.73,237.44" style="stroke:#181818;stroke-width:1;"/></g><!--SRC=[AqfDBadCIyz9LRYmyCAEYuqNcovilR3dmWQ5Qgxa_Do2_BpKl1A52xCkxBkmzsBJnGOWlHi8jrvi02fGK510KZCVABlZmiOB-s1o2WhH5nPUR0SgRWAIEoxiYWM9rdBLSc4rpqPN5wXXreMzGB7z5tPTs13B5NrX2iXDG2vGoOMTiGfWHLYTWyjCEnI7SQ6u4YoBuaAkMW00]--></g></svg>